Coordinates
version=1
nRows=16
nColumns=22
inDegrees=yes

Units are S.I. units (second, meters, Newtons, ...)
If the header above contains a line with 'inDegrees', this indicates whether rotational values are in degrees (yes) or radians (no).

endheader
time	pelvis_tilt	pelvis_list	pelvis_rotation	pelvis_tx	pelvis_ty	pelvis_tz	hip_flexion_r	hip_adduction_r	hip_rotation_r	knee_angle_r	ankle_angle_r	subtalar_angle_r	hip_flexion_l	hip_adduction_l	hip_rotation_l	knee_angle_l	ankle_angle_l	subtalar_angle_l	lumbar_extension	lumbar_bending	lumbar_rotation
      1.36000000	    -11.35296902	     -0.71358769	     -1.92925902	     -0.76849776	      0.97361683	      0.20445137	     34.79334062	     -1.75290188	     -4.34999080	    -39.69714510	     16.68715348	     -1.74292748	     14.42307608	      3.28867996	     -3.54809163	    -17.94430652	     21.73103620	     -4.99443140	     -0.46554833	     -0.05274996	     -0.68029940
      1.37000000	    -11.36268432	     -0.79188014	     -1.92227816	     -0.76600112	      0.97343544	      0.20433380	     35.13626901	     -1.62767686	     -4.40841538	    -38.87561739	     16.53724792	     -1.70036232	     14.29626101	      3.22245286	     -3.52958327	    -17.99228715	     21.87620762	     -5.01303669	     -0.52832296	      0.01517484	     -0.72862770
      1.38000000	    -11.36630467	     -0.86982274	     -1.93823124	     -0.76340900	      0.97322452	      0.20430269	     35.47021893	     -1.48665263	     -4.44742652	    -38.01246936	     16.36228872	     -1.65133150	     14.16260589	      3.14808126	     -3.52592745	    -18.05638244	     22.03620871	     -5.03473093	     -0.60083356	      0.08252489	     -0.74920367
      1.39000000	    -11.36241467	     -0.95140305	     -1.97294923	     -0.76072077	      0.97298700	      0.20434940	     35.79188330	     -1.32501052	     -4.46592124	    -37.11499820	     16.15166918	     -1.58161460	     14.02125461	      3.06311090	     -3.53546796	    -18.13531747	     22.21654975	     -5.05428169	     -0.68318981	      0.15705255	     -0.75751702
      1.40000000	    -11.34835183	     -1.04348369	     -2.02031375	     -0.75793447	      0.97272541	      0.20450364	     36.09675511	     -1.13676311	     -4.46953676	    -36.18919565	     15.90010996	     -1.46799048	     13.87092715	      2.95828458	     -3.54633766	    -18.23536549	     22.42030931	     -5.06506243	     -0.78033336	      0.23555834	     -0.75310224
      1.41000000	    -11.33574325	     -1.13314761	     -2.08426457	     -0.75505028	      0.97242235	      0.20473999	     36.40349892	     -0.93547958	     -4.45823276	    -35.24956506	     15.57069357	     -1.31681676	     13.71446224	      2.85425440	     -3.52644689	    -18.33819787	     22.63334152	     -5.06796282	     -0.87553447	      0.30944083	     -0.70529355
      1.42000000	    -11.28646020	     -1.25237569	     -2.14369881	     -0.75204873	      0.97213177	      0.20505362	     36.65360671	     -0.69824919	     -4.44180088	    -34.28527094	     15.25601256	     -0.99102309	     13.53023577	      2.71217493	     -3.51491221	    -18.48118619	     22.89731523	     -5.04414019	     -1.01624451	      0.41545568	     -0.69330483
      1.43000000	    -11.25310843	     -1.36651039	     -2.21439268	     -0.74894526	      0.97177003	      0.20543505	     36.92307705	     -0.45526872	     -4.42233532	    -33.32418683	     14.85013395	     -0.68206257	     13.36171535	      2.56974105	     -3.51266056	    -18.63551396	     23.15689990	     -5.04270258	     -1.13505365	      0.51728392	     -0.66688802
      1.44000000	    -11.19315953	     -1.48874461	     -2.27721026	     -0.74572973	      0.97140308	      0.20586773	     37.15649975	     -0.20425731	     -4.40852764	    -32.36454952	     14.46643952	     -0.20986180	     13.16367033	      2.42004462	     -3.47825599	    -18.80362967	     23.44573574	     -5.03043568	     -1.28721903	      0.62436524	     -0.63909034
      1.45000000	    -11.11919815	     -1.58564007	     -2.33873956	     -0.74239173	      0.97100642	      0.20631450	     37.38238135	      0.01942541	     -4.39994269	    -31.43438199	     14.11003979	      0.43775968	     12.93091849	      2.30351530	     -3.40854237	    -18.94886438	     23.74108873	     -5.01017581	     -1.45167577	      0.70576992	     -0.59803917
      1.46000000	    -11.05635153	     -1.68143835	     -2.38908939	     -0.73897472	      0.97054555	      0.20679088	     37.61477587	      0.24233143	     -4.39525290	    -30.51638564	     13.78020967	      1.06032257	     12.72058487	      2.18267045	     -3.36355791	    -19.12188615	     24.04063771	     -5.00492838	     -1.60366422	      0.78718077	     -0.57860789
      1.47000000	    -11.00791838	     -1.76726003	     -2.42611072	     -0.73546833	      0.97002687	      0.20727584	     37.86040867	      0.45060418	     -4.39747049	    -29.62536628	     13.48613646	      1.63096688	     12.52196782	      2.06499502	     -3.36677974	    -19.29390812	     24.33000177	     -5.00193410	     -1.73829079	      0.86402835	     -0.59194528
      1.48000000	    -10.95476488	     -1.80423451	     -2.44365842	     -0.73188600	      0.96948698	      0.20771949	     38.11578342	      0.59627575	     -4.39095301	    -28.79886745	     13.27674690	      2.33589691	     12.29251939	      2.00660459	     -3.34633715	    -19.41883748	     24.60730987	     -4.96390052	     -1.88072762	      0.88834912	     -0.59244149
      1.49000000	    -10.91999009	     -1.79540969	     -2.44252892	     -0.72821973	      0.96889873	      0.20812498	     38.40406854	      0.68510732	     -4.37217755	    -28.04270426	     13.09138443	      2.94254497	     12.05580501	      1.99802053	     -3.34524062	    -19.49303267	     24.86510756	     -4.90146180	     -1.99975150	      0.86533719	     -0.61018417
      1.50000000	    -10.89091787	     -1.77996562	     -2.41849913	     -0.72446622	      0.96828673	      0.20851412	     38.69210479	      0.75517715	     -4.34300161	    -27.33309964	     12.91428733	      3.34687098	     11.82070213	      1.98956869	     -3.38782682	    -19.56439118	     25.10382971	     -4.83453801	     -2.11447824	      0.84137918	     -0.65417974
      1.51000000	    -10.85975493	     -1.74492077	     -2.38132352	     -0.72056201	      0.96766547	      0.20888686	     38.97991593	      0.79158685	     -4.32511474	    -26.69436524	     12.72364226	      3.60955702	     11.55125997	      2.00449764	     -3.43753742	    -19.58661509	     25.33086481	     -4.76057593	     -2.22351899	      0.80177282	     -0.70787153
